<?xml version="1.0" encoding="UTF-8"?>
<svg width="294px" height="294px" viewBox="0 0 294 294" version="1.1" xmlns="http://www.w3.org/2000/svg" xmlns:xlink="http://www.w3.org/1999/xlink">
    <!-- Generator: Sketch 52.5 (67469) - http://www.bohemiancoding.com/sketch -->
    <title>Artboard</title>
    <desc>Created with Sketch.</desc>
    <defs>
        <linearGradient x1="97.265625%" y1="97.265625%" x2="5.95580182e-15%" y2="0%" id="linearGradient-1">
            <stop stop-color="#FC3832" offset="0%"></stop>
            <stop stop-color="#F2C314" offset="100%"></stop>
        </linearGradient>
        <linearGradient x1="98.2063138%" y1="98.2063138%" x2="1.15645175e-14%" y2="-2.22044605e-14%" id="linearGradient-2">
            <stop stop-color="#1C0FD7" offset="0%"></stop>
            <stop stop-color="#9C09DB" offset="100%"></stop>
        </linearGradient>
        <path d="M137.282354,97 L157.036438,97 L194.318792,196.326869 L172.06067,196.326869 L164.131214,173.373181 L129.352898,173.373181 L121.423442,196.326869 L100,196.326869 L137.282354,97 Z M158.705797,156.26225 L146.602943,120.649255 L134.639202,156.26225 L158.705797,156.26225 Z" id="path-3"></path>
        <filter x="-29.7%" y="-20.1%" width="159.4%" height="156.4%" filterUnits="objectBoundingBox" id="filter-4">
            <feOffset dx="0" dy="8" in="SourceAlpha" result="shadowOffsetOuter1"></feOffset>
            <feGaussianBlur stdDeviation="8" in="shadowOffsetOuter1" result="shadowBlurOuter1"></feGaussianBlur>
            <feColorMatrix values="0 0 0 0 0   0 0 0 0 0   0 0 0 0 0  0 0 0 0.1 0" type="matrix" in="shadowBlurOuter1"></feColorMatrix>
        </filter>
    </defs>
    <g id="Artboard" stroke="none" stroke-width="1" fill="none" fill-rule="evenodd">
        <g id="Group-11">
            <g id="Group-9" opacity="0.900000036">
                <path d="M75.5542857,32.7142857 L218.445714,32.7142857 C242.105593,32.7142857 261.285714,51.894407 261.285714,75.5542857 L261.285714,218.445714 C261.285714,242.105593 242.105593,261.285714 218.445714,261.285714 L75.5542857,261.285714 C51.894407,261.285714 32.7142857,242.105593 32.7142857,218.445714 L32.7142857,75.5542857 C32.7142857,51.894407 51.894407,32.7142857 75.5542857,32.7142857 Z" id="Rectangle-4" fill="url(#linearGradient-1)" transform="translate(147.000000, 147.000000) rotate(20.000000) translate(-147.000000, -147.000000) "></path>
                <path d="M75.5542857,32.7142857 L218.445714,32.7142857 C242.105593,32.7142857 261.285714,51.894407 261.285714,75.5542857 L261.285714,218.445714 C261.285714,242.105593 242.105593,261.285714 218.445714,261.285714 L75.5542857,261.285714 C51.894407,261.285714 32.7142857,242.105593 32.7142857,218.445714 L32.7142857,75.5542857 C32.7142857,51.894407 51.894407,32.7142857 75.5542857,32.7142857 Z" id="Rectangle-4" fill="url(#linearGradient-2)" transform="translate(147.000000, 147.000000) rotate(-20.000000) translate(-147.000000, -147.000000) "></path>
            </g>
            <g id="Aa">
                <use fill="black" fill-opacity="1" filter="url(#filter-4)" xlink:href="#path-3"></use>
                <use fill="#FCF8FF" fill-rule="evenodd" xlink:href="#path-3"></use>
            </g>
        </g>
        <rect id="Rectangle" stroke="#979797" fill="#FFFFFF" style="mix-blend-mode: color;" x="0.5" y="0.5" width="293" height="293"></rect>
    </g>
</svg>