<svg width="1440px" height="778px" viewBox="0 0 1440 778" version="1.1" xmlns="http://www.w3.org/2000/svg" xmlns:xlink="http://www.w3.org/1999/xlink">
    <defs>
        <linearGradient x1="0%" y1="0%" x2="100%" y2="98.5290179%" id="linearGradient-1">
            <stop stop-color="#540CFA" offset="0%"></stop>
            <stop stop-color="#FCCD04" offset="100%"></stop>
        </linearGradient>
        <linearGradient x1="100%" y1="50%" x2="0%" y2="50%" id="linearGradient-2">
            <stop stop-color="#FFFFFF" stop-opacity="0" offset="0%"></stop>
            <stop stop-color="#06CCE2" offset="100%"></stop>
            <stop stop-color="#FFFFFF" offset="100%"></stop>
        </linearGradient>
    </defs>
    <g id="Page-1" stroke="none" stroke-width="1" fill="none" fill-rule="evenodd">
        <g id="Landing-Page">
            <g id="Header" transform="translate(-119.000000, -354.000000)">
                <g id="Background">
                    <path d="M119,354 L1559,354 L1559,1109.9205 C1373.10938,1050.41471 1230.29427,1023.41541 1130.55469,1028.9226 C833.124821,1045.34539 800.131816,1115.24384 538.234375,1125.94189 C377.776042,1132.49633 238.03125,1108.59971 119,1054.25203 L119,354 Z" id="Bg" fill="url(#linearGradient-1)"></path>
                    <g id="Styles">
                        <rect id="Rectangle-3" fill="#FFFFFF" opacity="0.100000001" transform="translate(1258.218533, 638.000000) rotate(-30.000000) translate(-1258.218533, -638.000000) " x="767" y="538" width="982.437066" height="200" rx="100"></rect>
                        <rect id="Rectangle-3-Copy-4" fill="url(#linearGradient-2)" opacity="0.5" transform="translate(1077.390655, 536.136304) rotate(-30.000000) translate(-1077.390655, -536.136304) " x="1017.39065" y="528.636304" width="120" height="15" rx="7.5"></rect>
                        <rect id="Rectangle-3-Copy-5" fill="url(#linearGradient-2)" opacity="0.5" transform="translate(868.390655, 697.815073) rotate(-30.000000) translate(-868.390655, -697.815073) " x="818.390655" y="687.636304" width="100" height="20.3575381" rx="10.1787691"></rect>
                        <rect id="Rectangle-3-Copy-6" fill="url(#linearGradient-2)" transform="translate(1258.390655, 969.815073) rotate(-30.000000) translate(-1258.390655, -969.815073) " x="1208.39065" y="959.636304" width="100" height="20.3575381" rx="10.1787691"></rect>
                        <rect id="Rectangle-3-Copy" fill="#FFFFFF" opacity="0.049999997" transform="translate(475.407728, 332.211807) rotate(-30.000000) translate(-475.407728, -332.211807) " x="-15.8108046" y="232.211807" width="982.437066" height="200" rx="100"></rect>
                        <rect id="Rectangle-3-Copy-2" fill="#FFFFFF" opacity="0.100000001" transform="translate(1760.407728, 715.211807) rotate(-30.000000) translate(-1760.407728, -715.211807) " x="1269.1892" y="615.211807" width="982.437066" height="200" rx="100"></rect>
                        <rect id="Rectangle-3-Copy-3" fill="#FFFFFF" opacity="0.049999997" transform="translate(1475.407728, 696.211807) rotate(-30.000000) translate(-1475.407728, -696.211807) " x="984.189195" y="596.211807" width="982.437066" height="200" rx="100"></rect>
                    </g>
                    <g id="Curves" transform="translate(119.000000, 962.000000)" fill="#FFFFFF">
                        <path d="M0,0 C90.691156,1.1407348 147.852131,33.4375 291.790541,73.6835938 C387.74948,100.514323 543.382277,109.869792 758.688929,101.75 C469.143711,192.171875 216.247401,188.990885 0,92.2070313" id="Path-2" opacity="0.100000001"></path>
                        <path d="M100.462578,129.703125 C277.957893,89.7726405 426.761168,65.5369634 546.872401,56.9960937 C666.983635,48.4552241 811.315756,52.3471512 979.868763,68.671875 C931.91658,69.9609375 811.094075,92.9830729 617.401247,137.738281 C423.70842,182.49349 251.39553,179.815104 100.462578,129.703125 Z" id="Path-3" opacity="0.100000001"></path>
                        <path d="M1045.79002,63.3984375 C1130.69906,35.8789062 1279.08914,21.4296875 1439.15411,49.2382812 L1439.15411,147.655698 C1271.17074,95.8097117 1140.04938,67.7239583 1045.79002,63.3984375 Z" id="Path-4" opacity="0.200000003"></path>
                    </g>
                </g>
            </g>
        </g>
    </g>
</svg>