<?xml version="1.0" encoding="UTF-8"?>
<svg width="1023px" height="814px" viewBox="0 0 1023 814" version="1.1" xmlns="http://www.w3.org/2000/svg" xmlns:xlink="http://www.w3.org/1999/xlink">
    <!-- Generator: Sketch 52.5 (67469) - http://www.bohemiancoding.com/sketch -->
    <title>book_lover</title>
    <desc>Created with Sketch.</desc>
    <defs>
        <linearGradient x1="49.9983096%" y1="100.00595%" x2="49.9983096%" y2="-0.00150157813%" id="linearGradient-1">
            <stop stop-color="#808080" stop-opacity="0.25" offset="0%"></stop>
            <stop stop-color="#808080" stop-opacity="0.12" offset="54%"></stop>
            <stop stop-color="#808080" stop-opacity="0.1" offset="100%"></stop>
        </linearGradient>
    </defs>
    <g id="Page-1" stroke="none" stroke-width="1" fill="none" fill-rule="evenodd">
        <g id="book_lover">
            <path d="M599.86,137.42 C535.14,135.17 473.49,114.28 414.63,91.42 C355.77,68.56 297.47,43.23 234.3,31.12 C193.67,23.33 147.2,22.23 114.47,44.01 C82.96,65.01 72.78,101.16 67.31,134.74 C63.19,160 60.77,186.58 72.06,210.23 C79.89,226.65 93.8,240.45 103.41,256.23 C136.88,310.95 113.23,378.43 76.96,431.86 C59.96,456.93 40.21,480.86 27.09,507.52 C13.97,534.18 7.89,564.77 19.37,591.99 C30.76,618.99 57.89,639.23 87.27,653.48 C146.96,682.43 217.27,690.71 285.88,695.4 C437.71,705.79 590.34,701.29 742.57,696.79 C798.91,695.12 855.49,693.43 910.91,684.72 C941.69,679.88 973.46,672.21 995.81,653.67 C1024.17,630.14 1031.2,590.29 1012.2,560.79 C980.31,511.3 892.2,499.01 869.88,445.89 C857.62,416.66 870.22,384.1 888.04,356.98 C926.28,298.82 990.37,247.79 993.75,181.31 C996.07,135.64 965.25,89.92 917.61,68.31 C867.68,45.58 798.42,48.46 761.6,85.95 C723.66,124.58 657,139.4 599.86,137.42 Z" id="Path" fill="#009688" opacity="0.1"></path>
            <polygon id="Path" fill="#540CFA" points="435.45 690.5 93.17 688.83 59.16 609.06 179.42 600.33 158.46 512.87 396.32 482.04 168.55 402.86 188.67 398.08 554.92 457.83 534.75 594.32 505.92 669.33"></polygon>
            <path d="M98.42,655.42 C98.42,655.42 119.42,652.06 132.02,666.9 C132.02,666.9 122.78,674.18 102.9,664.1 L98.42,655.42 Z" id="Path" fill="#540CFA"></path>
            <path d="M96.22,655.09 C96.22,655.09 82.82,671.58 89.42,689.94 C89.42,689.94 100.34,685.57 101.53,663.31 L96.22,655.09 Z" id="Path" fill="#540CFA"></path>
            <path d="M84.18,627.98 C84.18,627.98 92.58,612.57 126.18,634.14 C126.18,634.14 121.7,644.5 106.86,643.66 C92.02,642.82 88.1,636.1 84.18,627.98 Z" id="Path" fill="#540CFA"></path>
            <path d="M82.01,626.87 C82.01,626.87 64.58,624.87 62.89,664.77 C62.89,664.77 73.94,667.06 81.79,654.44 C89.64,641.82 86.42,634.74 82.01,626.87 Z" id="Path" fill="#540CFA"></path>
            <path d="M71.86,595.04 C71.86,595.04 81.66,567.88 117.22,587.2 C117.22,587.2 109.1,612.12 75.5,604.28 L71.86,595.04 Z" id="Path" fill="#540CFA"></path>
            <path d="M60.94,554.44 C60.94,554.44 79.42,527 112.18,552.44 C112.18,552.44 100.7,578.2 63.74,564.2 L60.94,554.44 Z" id="Path" fill="#540CFA"></path>
            <path d="M57.02,515.8 C57.02,515.8 78.58,490.59 111.02,515.8 C111.02,515.8 90.58,537.92 57.02,522.24 L57.02,515.8 Z" id="Path" fill="#540CFA"></path>
            <path d="M53.66,478.27 C53.66,478.27 75.5,451.95 106.58,476.87 C106.58,476.87 81.94,500.11 53.66,484.43 L53.66,478.27 Z" id="Path" fill="#540CFA"></path>
            <path d="M55.62,444.95 C55.62,444.95 78.62,411.07 107.7,434.03 C107.7,434.03 83.06,463.15 55.62,451.39 L55.62,444.95 Z" id="Path" fill="#540CFA"></path>
            <path d="M60.94,406.03 C60.94,406.03 85.3,372.43 113.58,398.19 C113.58,398.19 84.74,427.31 60.94,412.19 L60.94,406.03 Z" id="Path" fill="#540CFA"></path>
            <path d="M69.06,371.24 C69.06,371.24 97.9,339.66 123.06,352.24 C123.06,352.24 93.01,385.78 67.8,379.62 L69.06,371.24 Z" id="Path" fill="#540CFA"></path>
            <path d="M79.14,338.26 C79.14,338.26 112.42,299.58 131.78,312.5 C131.78,312.5 107.26,342.5 76.78,345.5 L79.14,338.26 Z" id="Path" fill="#540CFA"></path>
            <path d="M93.69,300.01 C93.69,300.01 122.82,268.43 144.1,276.27 C144.1,276.27 119.18,309.03 89.78,309.87 L93.69,300.01 Z" id="Path" fill="#540CFA"></path>
            <path d="M106.86,264.23 C106.86,264.23 139.06,233.99 153.06,239.31 C153.06,239.31 129.82,272.91 105.46,270.95 L106.86,264.23 Z" id="Path" fill="#540CFA"></path>
            <path d="M119.74,231.19 C119.74,231.19 147.46,195.06 162.59,197.86 C162.59,197.86 145.78,230.07 119.74,234.86 L119.74,231.19 Z" id="Path" fill="#540CFA"></path>
            <path d="M133.72,186.64 C133.72,186.64 158.22,158.95 171.46,159.009806 C171.46,159.009806 152.12,196.01 132.71,195.67 L133.72,186.64 Z" id="Path" fill="#540CFA"></path>
            <path d="M142,156.98 L165.67,99.3 C165.67,99.3 166.85,151.44 138.99,167.68 L142,156.98 Z" id="Path" fill="#540CFA"></path>
            <path d="M151.61,93.37 C151.61,93.37 155.53,45.2 153.01,41.28 C153.01,41.28 169.93,81.33 151.45,114.65 L151.61,93.37 Z" id="Path" fill="#540CFA"></path>
            <path d="M70.94,594.4 C70.94,594.4 46.4,579.19 30.51,616.4 C30.51,616.4 52.35,630.9 73.83,603.89 L70.94,594.4 Z" id="Path" fill="#540CFA"></path>
            <path d="M60.15,552.89 C60.15,552.89 30.05,539.16 15.45,578.01 C15.45,578.01 38.7,594.01 62.89,562.71 L60.15,552.89 Z" id="Path" fill="#540CFA"></path>
            <path d="M55.62,518.11 C55.62,518.11 34.06,492.9 1.62,518.11 C1.62,518.11 22.06,540.23 55.62,524.55 L55.62,518.11 Z" id="Path" fill="#540CFA"></path>
            <path d="M52.92,478.27 C52.92,478.27 31.08,451.95 0,476.87 C0,476.87 24.64,500.11 52.92,484.43 L52.92,478.27 Z" id="Path" fill="#540CFA"></path>
            <path d="M55.62,445.91 C55.62,445.91 40.3,407.96 7,424.28 C7,424.28 25,457.93 54.26,452.21 L55.62,445.91 Z" id="Path" fill="#540CFA"></path>
            <path d="M62.87,405.84 C62.87,405.84 47.64,367.23 13.87,385.13 C13.87,385.13 34.55,420.52 61.37,411.8 L62.87,405.84 Z" id="Path" fill="#540CFA"></path>
            <path d="M72.31,371.43 C72.31,371.43 66.31,329.1 38.31,325.31 C38.31,325.31 44.25,369.95 68.54,379.06 L72.31,371.43 Z" id="Path" fill="#540CFA"></path>
            <path d="M79.85,338.34 C79.85,338.34 77.51,287.34 54.36,285.56 C54.36,285.56 55.14,324.27 77.24,345.56 L79.85,338.34 Z" id="Path" fill="#540CFA"></path>
            <path d="M96.09,298.58 C96.09,298.58 89.19,256.17 67.09,250.99 C67.09,250.99 69.83,292.06 93.9,308.99 L96.09,298.58 Z" id="Path" fill="#540CFA"></path>
            <path d="M109.48,264.58 C109.48,264.58 109.25,220.4 95.75,213.91 C95.75,213.91 87.38,253.91 105.57,270.22 L109.48,264.58 Z" id="Path" fill="#540CFA"></path>
            <path d="M120.77,230.69 C120.77,230.69 118.88,185.2 104.9,178.79 C104.9,178.79 100.12,214.79 118.68,233.67 L120.77,230.69 Z" id="Path" fill="#540CFA"></path>
            <path d="M135.67,190.27 C135.67,190.27 135.59,153.27 125.61,144.59 C125.61,144.59 115.69,185.12 130.46,197.71 L135.67,190.27 Z" id="Path" fill="#540CFA"></path>
            <path d="M140.83,155.16 L131.12,93.58 C131.12,93.58 117.93,144.04 141.29,166.28 L140.83,155.16 Z" id="Path" fill="#540CFA"></path>
            <path d="M142.72,93.95 C142.72,93.95 117.8,52.55 118.31,47.95 C118.31,47.95 120.96,91.34 152.31,112.95 L142.72,93.95 Z" id="Path" fill="#540CFA"></path>
            <path d="M145.64,81.72 C145.64,81.72 122.12,22.92 111.48,18.16 C111.48,18.16 145.08,35.24 147.6,80.04 L145.64,81.72 Z" id="Path" fill="#540CFA"></path>
            <path d="M132.59,196.02 L130.98,195.53 C150.83,130.8 155.78,89.53 144.93,79.18 L146.08,77.96 C157.59,88.88 152.92,129.7 132.59,196.02 Z" id="Path" fill="#444053"></path>
            <path d="M77.93,347.58 L75.55,346.73 C77.66,340.8 79.93,334.78 82.31,328.85 C103.03,277.21 120.67,229.17 131.98,192.29 L134.05,191.29 C122.72,228.24 105.39,278.12 84.65,329.83 C82.28,335.65 80.02,341.64 77.93,347.58 Z" id="Path" fill="#444053"></path>
            <path d="M128.01,703.86 C127.69,703.51 95.52,667.28 73.09,605.43 C59.9473531,569.219364 52.6330966,531.152828 51.42,492.65 C49.88,444.52 59.98,390.78 77.28,341.96 L79.16,344.16 C40.32,453.73 55.75,547.62 76.22,604.16 C98.41,665.45 130.22,701.28 130.53,701.64 L128.01,703.86 Z" id="Path" fill="#444053"></path>
            <path d="M630.73,626.94 C630.73,626.94 608.06,654.61 626.06,696.44 L445.06,774.94 L427.69,778.58 L419.69,743.58 L425.04,699.41 L425.04,675.27 L630.73,626.94 Z" id="Path" fill="#D5D6DB"></path>
            <polygon id="Path" fill="#540CFA" points="59.16 609.06 309.68 563.39 641.63 616.27 435.45 690.5"></polygon>
            <polygon id="Path" fill="#009688" points="59.16 609.06 309.68 563.39 641.63 616.27 435.45 690.5"></polygon>
            <path d="M59.16,609.05 C59.16,609.05 35.73,653.44 62.73,694.44 L434.23,774.94 C434.23,774.94 411.17,739.58 435.42,690.5 L59.16,609.05 Z" id="Path" fill="#009688"></path>
            <path d="M59.16,609.05 C59.16,609.05 35.73,653.44 62.73,694.44 L434.23,774.94 C434.23,774.94 411.17,739.58 435.42,690.5 L59.16,609.05 Z" id="Path" fill="#000000" opacity="0.1"></path>
            <path d="M70.23,624.44 C70.23,624.44 56.84,656.92 70.23,677.94" id="Path" fill="#000000" opacity="0.1"></path>
            <path d="M434.23,774.94 L641.63,686.44 C641.63,686.44 653.23,688.94 645.73,697.44 C638.23,705.94 438.23,783.44 438.23,783.44 L62.73,694.44 L434.23,774.94 Z" id="Path" fill="#009688"></path>
            <path d="M434.23,774.94 L641.63,686.44 C641.63,686.44 653.23,688.94 645.73,697.44 C638.23,705.94 438.23,783.44 438.23,783.44 L62.73,694.44 L434.23,774.94 Z" id="Path" fill="#000000" opacity="0.1"></path>
            <path d="M417.23,699.44 C417.23,699.44 397.23,723.44 417.23,759.44" id="Path" fill="#000000" opacity="0.1"></path>
            <rect id="Rectangle" fill="#000000" opacity="0.1" transform="translate(469.360942, 714.473073) rotate(-18.450000) translate(-469.360942, -714.473073) " x="422.075942" y="713.973073" width="94.57" height="1"></rect>
            <rect id="Rectangle" fill="#000000" opacity="0.1" transform="translate(478.350360, 717.001541) rotate(-20.820000) translate(-478.350360, -717.001541) " x="420.73536" y="716.501541" width="115.23" height="1"></rect>
            <rect id="Rectangle" fill="#000000" opacity="0.1" transform="translate(486.913443, 721.672056) rotate(-22.260000) translate(-486.913443, -721.672056) " x="420.133443" y="721.172056" width="133.56" height="1"></rect>
            <rect id="Rectangle" fill="#000000" opacity="0.1" transform="translate(496.623477, 723.680801) rotate(-24.310000) translate(-496.623477, -723.680801) " x="419.753477" y="723.180801" width="153.74" height="1"></rect>
            <rect id="Rectangle" fill="#000000" opacity="0.1" transform="translate(504.710261, 725.731517) rotate(-23.610000) translate(-504.710261, -725.731517) " x="420.635261" y="725.231517" width="168.15" height="1"></rect>
            <rect id="Rectangle" fill="#000000" opacity="0.1" transform="translate(522.357555, 726.352018) rotate(-23.360000) translate(-522.357555, -726.352018) " x="421.747555" y="725.852018" width="201.22" height="1"></rect>
            <polygon id="Path" fill="#FFFFFF" opacity="0.3" points="152.23 613.94 328.23 576.94 435.45 597.44 291.23 643.94"></polygon>
            <path d="M641.63,616.27 C641.63,616.27 650.73,619.94 645.39,625.61 C640.05,631.28 435.42,690.5 435.42,690.5 L641.63,616.27 Z" id="Path" fill="#009688"></path>
            <path d="M730.02,530.76 C730.02,530.76 707.36,558.42 725.36,600.26 L544.36,678.76 L526.99,682.42 L518.99,647.42 L524.42,603.26 L524.42,579.09 L730.02,530.76 Z" id="Path" fill="#D5D6DB"></path>
            <polygon id="Path" fill="#3A3768" points="158.46 512.87 408.97 467.21 740.93 520.09 534.75 594.32"></polygon>
            <path d="M158.42,512.87 C158.42,512.87 134.98,557.26 161.98,598.26 L533.48,678.76 C533.48,678.76 510.43,643.37 534.71,594.31 L158.42,512.87 Z" id="Path" fill="#3A3768"></path>
            <path d="M158.42,512.87 C158.42,512.87 134.98,557.26 161.98,598.26 L533.48,678.76 C533.48,678.76 510.43,643.37 534.71,594.31 L417.23,568.88 L158.42,512.87 Z" id="Path" fill="#000000" opacity="0.1"></path>
            <path d="M169.52,528.26 C169.52,528.26 156.14,560.73 169.52,581.76" id="Path" fill="#000000" opacity="0.1"></path>
            <path d="M533.52,678.76 L740.93,590.26 C740.93,590.26 752.52,592.76 745.02,601.26 C737.52,609.76 537.52,687.26 537.52,687.26 L162.02,598.26 L533.52,678.76 Z" id="Path" fill="#3A3768"></path>
            <path d="M533.52,678.76 L740.93,590.26 C740.93,590.26 752.52,592.76 745.02,601.26 C737.52,609.76 537.52,687.26 537.52,687.26 L162.02,598.26 L533.52,678.76 Z" id="Path" fill="#000000" opacity="0.1"></path>
            <path d="M516.52,603.26 C516.52,603.26 496.52,627.26 516.52,663.26" id="Path" fill="#000000" opacity="0.1"></path>
            <rect id="Rectangle" fill="#000000" opacity="0.1" transform="translate(568.658701, 618.303708) rotate(-18.450000) translate(-568.658701, -618.303708) " x="521.373701" y="617.803708" width="94.57" height="1"></rect>
            <rect id="Rectangle" fill="#000000" opacity="0.1" transform="translate(577.660664, 620.827412) rotate(-20.820000) translate(-577.660664, -620.827412) " x="520.045664" y="620.327412" width="115.23" height="1"></rect>
            <rect id="Rectangle" fill="#000000" opacity="0.1" transform="translate(586.209091, 625.484080) rotate(-22.260000) translate(-586.209091, -625.484080) " x="519.429091" y="624.98408" width="133.56" height="1"></rect>
            <rect id="Rectangle" fill="#000000" opacity="0.1" transform="translate(595.930709, 627.494775) rotate(-24.310000) translate(-595.930709, -627.494775) " x="519.060709" y="626.994775" width="153.74" height="1"></rect>
            <rect id="Rectangle" fill="#000000" opacity="0.1" transform="translate(604.003184, 629.532768) rotate(-23.610000) translate(-604.003184, -629.532768) " x="519.928184" y="629.032768" width="168.15" height="1"></rect>
            <rect id="Rectangle" fill="#000000" opacity="0.1" transform="translate(621.658083, 630.153399) rotate(-23.360000) translate(-621.658083, -630.153399) " x="521.048083" y="629.653399" width="201.22" height="1"></rect>
            <polygon id="Path" fill="#FFFFFF" opacity="0.45" points="251.53 517.76 427.53 480.76 534.75 501.26 390.53 547.76"></polygon>
            <path d="M740.93,520.09 C740.93,520.09 750.02,523.76 744.69,529.42 C739.36,535.08 534.75,594.31 534.75,594.31 L740.93,520.09 Z" id="Path" fill="#3A3768"></path>
            <path d="M739.42,420.73 C739.42,420.73 716.75,470.4 734.75,512.23 L553.75,568.73 L536.42,572.4 L528.42,537.4 L533.77,493.23 L533.77,469.06 L739.42,420.73 Z" id="Path" fill="#D5D6DB"></path>
            <polygon id="Path" fill="#FCCD04" points="167.89 402.85 418.41 357.18 750.37 410.06 544.18 484.29"></polygon>
            <path d="M167.89,402.84 C167.89,402.84 144.42,447.23 171.42,488.23 L542.92,568.73 C542.92,568.73 519.86,533.34 544.14,484.29 L167.89,402.84 Z" id="Path" fill="#FCCD04"></path>
            <path d="M167.89,402.84 C167.89,402.84 144.42,447.23 171.42,488.23 L542.92,568.73 C542.92,568.73 519.86,533.34 544.14,484.29 L167.89,402.84 Z" id="Path" fill="#000000" opacity="0.1"></path>
            <path d="M178.96,418.23 C178.96,418.23 165.57,450.71 178.96,471.73" id="Path" fill="#000000" opacity="0.1"></path>
            <path d="M542.96,568.73 L750.36,502.23 C750.36,502.23 761.96,504.73 754.46,513.23 C746.96,521.73 546.96,577.23 546.96,577.23 L171.46,488.23 L542.96,568.73 Z" id="Path" fill="#FCCD04"></path>
            <path d="M542.96,568.73 L750.36,502.23 C750.36,502.23 761.96,504.73 754.46,513.23 C746.96,521.73 546.96,577.23 546.96,577.23 L171.46,488.23 L542.96,568.73 Z" id="Path" fill="#000000" opacity="0.1"></path>
            <path d="M525.96,493.23 C525.96,493.23 505.96,517.23 525.96,553.23" id="Path" fill="#000000" opacity="0.1"></path>
            <rect id="Rectangle" fill="#000000" opacity="0.1" transform="translate(578.101526, 508.271686) rotate(-18.450000) translate(-578.101526, -508.271686) " x="530.816526" y="507.771686" width="94.57" height="1"></rect>
            <rect id="Rectangle" fill="#000000" opacity="0.1" transform="translate(587.096580, 510.800453) rotate(-20.820000) translate(-587.096580, -510.800453) " x="529.48158" y="510.300453" width="115.23" height="1"></rect>
            <rect id="Rectangle" fill="#000000" opacity="0.1" transform="translate(595.635834, 515.461952) rotate(-22.260000) translate(-595.635834, -515.461952) " x="528.855834" y="514.961952" width="133.56" height="1"></rect>
            <rect id="Rectangle" fill="#000000" opacity="0.1" transform="translate(605.371368, 517.463893) rotate(-24.310000) translate(-605.371368, -517.463893) " x="528.501368" y="516.963893" width="153.74" height="1"></rect>
            <rect id="Rectangle" fill="#000000" opacity="0.1" transform="translate(613.448992, 519.511425) rotate(-23.610000) translate(-613.448992, -519.511425) " x="529.373992" y="519.011425" width="168.15" height="1"></rect>
            <rect id="Rectangle" fill="#000000" opacity="0.1" transform="translate(631.100593, 520.138528) rotate(-23.360000) translate(-631.100593, -520.138528) " x="530.490593" y="519.638528" width="201.22" height="1"></rect>
            <polygon id="Path" fill="#FFFFFF" opacity="0.3" points="260.96 407.73 436.96 370.73 544.18 391.23 399.96 437.73"></polygon>
            <path d="M750.36,410.06 C750.36,410.06 759.46,413.73 754.12,419.4 C748.78,425.07 544.18,484.29 544.18,484.29 L750.36,410.06 Z" id="Path" fill="#FCCD04"></path>
            <path d="M310.42,106.5 C310.42,106.5 272.42,104.21 276.86,130.87 C276.86,130.87 275.97,135.58 280.24,137.72 C280.24,137.72 280.31,135.72 284.14,136.41 C285.506731,136.644781 286.897002,136.711943 288.28,136.61 C290.144288,136.482366 291.916616,135.752378 293.33,134.53 C293.33,134.53 304.02,130.11 308.18,112.63 C308.18,112.63 311.26,108.82 311.18,107.84 L304.74,110.58 C304.74,110.58 306.93,115.21 305.21,119.06 C305.21,119.06 305,110.75 303.76,110.94 C303.51,110.94 300.43,112.55 300.43,112.55 C300.43,112.55 304.2,120.62 301.35,126.48 C301.35,126.48 302.43,116.54 299.25,113.13 L294.73,115.77 C294.73,115.77 299.14,124.1 296.15,130.9 C296.15,130.9 296.92,120.47 293.78,116.41 L289.68,119.61 C289.68,119.61 293.83,127.82 291.3,133.46 C291.3,133.46 290.97,121.32 288.8,120.4 C288.8,120.4 285.21,123.56 284.67,124.86 C284.67,124.86 287.51,130.86 285.74,133.97 C285.74,133.97 284.67,125.88 283.74,125.84 C283.74,125.84 280.17,131.2 279.8,134.84 C279.972899,131.446511 281.031332,128.157439 282.87,125.3 C280.812474,125.689277 278.914202,126.67318 277.41,128.13 C277.41,128.13 277.96,124.34 283.76,124.01 C283.76,124.01 286.71,119.94 287.5,119.7 C287.5,119.7 281.73,119.21 278.24,120.76 C278.24,120.76 281.32,117.19 288.55,118.76 L292.55,115.46 C292.55,115.46 284.97,114.46 281.75,115.57 C281.75,115.57 285.46,112.41 293.64,114.71 L298.05,112.08 C298.05,112.08 291.58,110.69 287.73,111.19 C287.73,111.19 291.79,109 299.34,111.37 L302.48,109.96 C302.48,109.96 297.75,109.03 296.36,108.88 C294.97,108.73 294.9,108.35 294.9,108.35 C297.902138,107.856949 300.982135,108.203016 303.8,109.35 C303.8,109.35 310.55,106.92 310.42,106.5 Z" id="Path" fill="#540CFA"></path>
            <path d="M845.02,216.08 C845.02,216.08 807.02,213.79 811.46,240.45 C811.46,240.45 810.57,245.16 814.84,247.3 C814.84,247.3 814.91,245.3 818.74,245.99 C820.107326,246.219311 821.496938,246.286442 822.88,246.19 C824.727338,246.053901 826.481193,245.324297 827.88,244.11 C827.88,244.11 838.58,239.69 842.73,222.21 C842.73,222.21 845.81,218.4 845.73,217.42 L839.31,220.16 C839.31,220.16 841.5,224.79 839.78,228.64 C839.78,228.64 839.57,220.33 838.34,220.52 C838.09,220.52 835,222.13 835,222.13 C835,222.13 838.77,230.2 835.93,236.06 C835.93,236.06 837.01,226.12 833.82,222.71 L829.3,225.35 C829.3,225.35 833.71,233.68 830.72,240.48 C830.72,240.48 831.49,230.05 828.35,225.99 L824.26,229.19 C824.26,229.19 828.4,237.4 825.87,243.04 C825.87,243.04 825.54,230.9 823.37,229.98 C823.37,229.98 819.79,233.14 819.24,234.44 C819.24,234.44 822.08,240.44 820.32,243.55 C820.32,243.55 819.24,235.46 818.32,235.42 C818.32,235.42 814.75,240.78 814.38,244.42 C814.55312,241.025076 815.615249,237.735235 817.46,234.88 C815.399877,235.270226 813.498653,236.253858 811.99,237.71 C811.99,237.71 812.55,233.92 818.34,233.59 C818.34,233.59 821.29,229.52 822.08,229.27 C822.08,229.27 816.32,228.79 812.82,230.34 C812.82,230.34 815.9,226.77 823.13,228.34 L827.13,225.04 C827.13,225.04 819.54,224.04 816.33,225.15 C816.33,225.15 820.03,221.99 828.22,224.29 L832.62,221.66 C832.62,221.66 826.15,220.27 822.3,220.77 C822.3,220.77 826.36,218.58 833.91,220.95 L837.06,219.54 C837.06,219.54 832.32,218.61 830.93,218.46 C829.54,218.31 829.47,217.93 829.47,217.93 C832.471974,217.430612 835.553702,217.776873 838.37,218.93 C838.37,218.93 845.14,216.5 845.02,216.08 Z" id="Path" fill="#540CFA" opacity="0.1"></path>
            <path d="M374.42,271.2 C374.42,271.2 357.86,236.87 336.78,253.79 C336.78,253.79 332.23,255.31 332.45,260.08 C332.45,260.08 334.2,259.17 335.45,262.85 C335.916937,264.150871 336.534468,265.392646 337.29,266.55 C338.313155,268.118841 339.818933,269.312231 341.58,269.95 C341.58,269.95 350.65,277.13 367.94,272.23 C367.94,272.23 372.77,273.06 373.56,272.48 L368.04,268.21 C368.04,268.21 365.04,272.38 360.86,272.75 C360.86,272.75 368.02,268.52 367.25,267.54 C367.09,267.34 364.25,265.41 364.25,265.41 C364.25,265.41 359.04,272.64 352.54,273.01 C352.54,273.01 361.74,269.11 363.16,264.66 L358.66,262 C358.66,262 353.53,269.92 346.14,270.62 C346.14,270.62 355.62,266.21 357.63,261.49 L352.85,259.49 C352.85,259.49 347.7,267.11 341.54,267.66 C341.54,267.66 351.98,261.45 351.72,259.1 C351.72,259.1 347.21,257.52 345.81,257.67 C345.81,257.67 341.99,263.06 338.39,263.06 C338.39,263.06 344.92,258.17 344.52,257.38 C344.52,257.38 338.1,256.88 334.72,258.38 C337.765732,256.86618 341.15489,256.176626 344.55,256.38 C343.203069,254.773883 341.416721,253.595727 339.41,252.99 C339.41,252.99 342.99,251.63 346.1,256.52 C346.1,256.52 351.1,257.11 351.69,257.68 C351.69,257.68 349.3,252.42 346.25,250.13 C346.25,250.13 350.87,251.06 352.98,258.13 L357.83,260.05 C357.83,260.05 355.04,252.93 352.47,250.68 C352.47,250.68 357.03,252.37 359.02,260.68 L363.46,263.24 C363.46,263.24 361.53,256.91 359.21,253.8 C359.21,253.8 363.1,256.28 364.71,264.02 L367.48,266.08 C367.48,266.08 365.98,261.49 365.48,260.21 C364.98,258.93 365.23,258.67 365.23,258.67 C367.132331,261.044242 368.337186,263.90058 368.71,266.92 C368.71,266.92 374.06,271.5 374.42,271.2 Z" id="Path" fill="#540CFA" opacity="0.1"></path>
            <path d="M758.2,167.58 C758.2,167.58 741.65,133.25 720.56,150.17 C720.56,150.17 716.02,151.69 716.23,156.46 C716.23,156.46 717.99,155.56 719.23,159.23 C719.696084,160.536199 720.317188,161.781765 721.08,162.94 C722.099477,164.505895 723.602263,165.696186 725.36,166.33 C725.36,166.33 734.44,173.51 751.72,168.62 C751.72,168.62 756.55,169.44 757.35,168.86 L751.86,164.58 C751.86,164.58 748.86,168.76 744.69,169.13 C744.69,169.13 751.84,164.89 751.07,163.91 C750.91,163.71 748.07,161.78 748.07,161.78 C748.07,161.78 742.87,169.01 736.36,169.38 C736.36,169.38 745.57,165.48 746.99,161.04 L742.42,158.4 C742.42,158.4 737.3,166.31 729.9,167.02 C729.9,167.02 739.38,162.6 741.4,157.88 L736.61,155.88 C736.61,155.88 731.46,163.51 725.31,164.05 C725.31,164.05 735.74,157.84 735.48,155.5 C735.48,155.5 730.98,153.91 729.58,154.07 C729.58,154.07 725.76,159.45 722.15,159.45 C722.15,159.45 728.69,154.56 728.29,153.77 C728.29,153.77 721.87,153.27 718.48,154.77 C721.52558,153.255736 724.914857,152.566157 728.31,152.77 C726.968114,151.16286 725.184596,149.984278 723.18,149.38 C723.18,149.38 726.76,148.02 729.87,152.91 C729.87,152.91 734.87,153.51 735.46,154.08 C735.46,154.08 733.07,148.81 730.01,146.52 C730.01,146.52 734.63,147.46 736.74,154.57 L741.6,156.49 C741.6,156.49 738.81,149.36 736.24,147.11 C736.24,147.11 740.8,148.8 742.78,157.11 L747.23,159.67 C747.23,159.67 745.29,153.35 742.97,150.23 C742.97,150.23 746.87,152.71 748.47,160.45 L751.24,162.51 C751.24,162.51 749.75,157.92 749.24,156.64 C748.73,155.36 748.99,155.11 748.99,155.11 C750.886919,157.486443 752.088046,160.342148 752.46,163.36 C752.46,163.36 757.89,167.9 758.2,167.58 Z" id="Path" fill="#540CFA" opacity="0.1"></path>
            <path d="M811.09,337.39 C811.09,337.39 794.54,303.05 773.42,319.97 C773.42,319.97 768.88,321.49 769.09,326.26 C769.09,326.26 770.85,325.36 772.09,329.03 C772.552839,330.335767 773.170582,331.581324 773.93,332.74 C774.949477,334.305895 776.452263,335.496186 778.21,336.13 C778.21,336.13 787.29,343.32 804.58,338.42 C804.58,338.42 809.4,339.25 810.2,338.66 L804.68,334.39 C804.68,334.39 801.68,338.57 797.5,338.94 C797.5,338.94 804.65,334.7 803.88,333.72 C803.72,333.52 800.88,331.59 800.88,331.59 C800.88,331.59 795.68,338.82 789.17,339.2 C789.17,339.2 798.38,335.29 799.8,330.85 L795.29,328.19 C795.29,328.19 790.17,336.11 782.77,336.81 C782.77,336.81 792.25,332.39 794.27,327.67 L789.48,325.67 C789.48,325.67 784.33,333.29 778.18,333.84 C778.18,333.84 788.62,327.63 788.36,325.28 C788.36,325.28 783.85,323.69 782.45,323.85 C782.45,323.85 778.63,329.23 775.02,329.23 C775.02,329.23 781.56,324.34 781.16,323.55 C781.16,323.55 774.74,323.05 771.35,324.55 C774.39948,323.036681 777.791716,322.347202 781.19,322.55 C779.846219,320.940352 778.058726,319.761441 776.05,319.16 C776.05,319.16 779.63,317.79 782.74,322.69 C782.74,322.69 787.74,323.28 788.33,323.85 C788.33,323.85 785.94,318.59 782.89,316.29 C782.89,316.29 787.51,317.23 789.62,324.34 L794.47,326.26 C794.47,326.26 791.68,319.13 789.11,316.89 C789.11,316.89 793.67,318.57 795.65,326.89 L800.1,329.44 C800.1,329.44 798.16,323.12 795.84,320 C795.84,320 799.74,322.48 801.35,330.23 L804.12,332.23 C804.12,332.23 802.62,327.64 802.12,326.36 C801.62,325.08 801.87,324.83 801.87,324.83 C803.771483,327.203729 804.973178,330.060783 805.34,333.08 C805.34,333.08 810.78,337.69 811.09,337.39 Z" id="Path" fill="#540CFA" opacity="0.1"></path>
            <ellipse id="Oval" fill="#540CFA" opacity="0.1" cx="201.95" cy="781.59" rx="22.99" ry="2.57"></ellipse>
            <ellipse id="Oval" fill="#540CFA" opacity="0.1" cx="51.24" cy="737.91" rx="22.99" ry="2.57"></ellipse>
            <ellipse id="Oval" fill="#540CFA" opacity="0.1" cx="316.83" cy="810.6" rx="22.99" ry="2.57"></ellipse>
            <ellipse id="Oval" fill="#540CFA" opacity="0.1" cx="905.53" cy="747.41" rx="22.99" ry="2.57"></ellipse>
            <ellipse id="Oval" fill="#540CFA" opacity="0.1" cx="714.22" cy="734.94" rx="22.99" ry="2.57"></ellipse>
            <ellipse id="Oval" fill="#540CFA" opacity="0.1" cx="590.46" cy="793.66" rx="27.19" ry="4.67"></ellipse>
            <path d="M602.59,746.72 C602.59,746.72 564.73,766.28 584.29,789.32 C584.29,789.32 586.13,794.32 591.45,793.97 C591.45,793.97 590.39,792.03 594.45,790.48 C595.894634,789.921574 597.267633,789.193112 598.54,788.31 C600.259324,787.1214 601.544252,785.404652 602.2,783.42 C602.2,783.42 609.94,773.06 603.94,753.89 C603.94,753.89 604.72,748.47 604.04,747.59 L599.44,753.9 C599.44,753.9 604.19,757.09 604.74,761.78 C604.74,761.78 599.74,753.91 598.74,754.78 C598.52,754.96 596.46,758.23 596.46,758.23 C596.46,758.23 604.7,763.82 605.31,771.08 C605.31,771.08 600.67,760.91 595.66,759.46 L592.79,764.58 C592.79,764.58 601.79,770.06 602.79,778.3 C602.79,778.3 597.56,767.85 592.22,765.74 L590.11,771.15 C590.11,771.15 598.79,776.67 599.59,783.53 C599.59,783.53 592.33,772.06 589.72,772.42 C589.72,772.42 588.08,777.5 588.3,779.07 C588.3,779.07 594.43,783.17 594.54,787.2 C594.54,787.2 588.88,780.05 588.01,780.52 C588.01,780.52 587.65,787.71 589.39,791.45 C589.39,791.45 586.39,786.11 586.88,780.52 C585.126227,782.07089 583.864414,784.100913 583.25,786.36 C583.25,786.36 581.62,782.41 586.99,778.77 C586.99,778.77 587.5,773.18 588.12,772.49 C588.12,772.49 582.31,775.33 579.84,778.81 C579.84,778.81 580.75,773.62 588.63,771.04 L590.63,765.56 C590.63,765.56 582.75,768.9 580.32,771.84 C580.32,771.84 582.07,766.69 591.25,764.22 L593.97,759.22 C593.97,759.22 586.97,761.58 583.55,764.22 C583.55,764.22 586.2,759.79 594.81,757.75 L597.02,754.6 C597.02,754.6 591.94,756.41 590.52,757.06 C589.1,757.71 588.82,757.39 588.82,757.39 C591.415624,755.194473 594.56904,753.761417 597.93,753.25 C597.93,753.25 602.94,747.06 602.59,746.72 Z" id="Path" fill="#540CFA"></path>
            <path d="M714.96,377.29 C708.42,359.52 672.42,357.85 656.8,362.38 C645.7,365.61 622.3,369.25 609.8,371.08 L608.99,370.31 C610.61,369.83 610.65,368.65 610.45,366.9 C610.333583,364.593599 610.366986,362.282074 610.55,359.98 C618.21,362.36 625.03,356.73 625.03,356.73 C634.03,352.73 631.61,335.61 633.33,330.93 C634.62,327.43 636.01,306.81 636.63,296.53 L636.76,296.53 L636.83,293.08 C636.92,291.59 636.96,290.72 636.96,290.72 C636.96,290.72 637.84,265.58 639.56,260.49 C641.16,255.81 642.46,232.23 642.66,228.49 C642.66,228.17 642.66,228 642.66,228 L642.53,225.82 C642.62,224.23 642.66,222.46 642.65,220.6 C642.65,212.05 641.76,201.28 641.65,199.54 C641.65,199.29 641.65,198.99 641.65,198.63 C641.72,194.98 641.26,176.7 625.71,169.79 C619.98,167.23 613.09,164.18 606.42,161.21 C604.7,146.36 600.77,131.59 601.11,116.63 C601.11,114.38 601.31,112.13 601.53,109.89 C601.53,110.54 601.46,111.2 601.45,111.89 C601.45,113.34 601.45,114.8 601.45,116.25 C602.04,97.54 609.11,78.73 608.45,60.42 C608.39,62.21 608.26,64.01 608.09,65.81 C608.435256,59.6168233 607.787058,53.4083021 606.17,47.42 C605.57,45.31 604.76,43.13 603.03,41.72 C601.394753,40.5844272 599.519368,39.8418018 597.55,39.55 C592.818022,38.3387694 588.010756,37.443462 583.16,36.87 C582.422892,34.6137376 581.329027,32.4901547 579.92,30.58 C569.78,16.66 554.76,3.58 537,0.58 C528.09,-0.92 517.84,0.33 511.78,6.7 C511.147147,7.25958887 510.552483,7.86093455 510,8.5 C506.74,12.39 505.34,17.5 502,21.38 C501.78,21.64 501.53,21.88 501.29,22.13 C494.75,27.98 484.56,29.2 477.29,34.45 C476.008995,35.3924588 474.808226,36.4393688 473.7,37.58 C470.770624,40.4829205 468.1438,43.6759867 465.86,47.11 C462.59,51.71 459.23,56.5 458.19,61.99 C456.1,72.99 463.59,83.42 464.98,94.49 C468.08,119.26 440.67,141.24 445.86,165.68 C447.244882,171.684174 450.303045,177.172919 454.68,181.51 C443.99,191.19 434.89,200.58 434.89,200.58 L434.89,201.14 L433.2,201.14 L433.37,203.14 L433.2,203.14 L434.13,213.99 L433.2,229.79 C433.2,229.79 433.2,229.96 433.2,230.28 L433.2,230.36 L433.2,230.79 C433.2,230.79 433.2,230.96 433.2,231.28 L433.26,231.28 C433.57,237.07 434.8,257.89 436.26,262.28 C437.98,267.37 438.85,292.51 438.85,292.51 C438.85,292.51 440.75,328.04 442.49,332.74 C444.23,337.44 441.76,354.51 450.79,358.54 C453.431685,360.56635 456.559454,361.862978 459.86,362.3 C459.4,366.04 459.69,368.75 461.18,369.6 C461.81776,369.974924 462.540433,370.181402 463.28,370.2 C462.667345,371.108639 462.122534,372.061222 461.65,373.05 C458.065824,372.675797 454.544048,371.84576 451.17,370.58 C441.47,366.58 409.28,357.58 399.93,363.91 C390.58,370.24 368.08,375.98 378.47,401.46 C388.86,426.94 393.7,427.58 393.7,427.58 C396.89816,429.901672 399.703712,432.720728 402.01,435.93 C405.13,440.62 434.2,451.35 441.47,451.35 C444.560049,451.302396 447.64992,451.456054 450.72,451.81 C450.72,451.81 442.83,458.73 443.88,462.75 C444.93,466.77 441.48,498.95 441.48,498.95 C441.48,498.95 449.48,507.01 452.9,496.44 L453.02,496.6 C453.66,497.47 457.12,501.4 463.63,496.44 C466.294301,494.418677 469.124331,492.625656 472.09,491.08 L503.61,486.62 C506.896189,486.414603 510.191228,486.391234 513.48,486.55 C518.48,486.96 523.39,484 526.48,481.71 C533.01,484.19 540.35,486.9 543.84,487.89 C550.92,489.89 583.46,498.62 591.07,495.89 C592.651863,495.261025 594.058409,494.259289 595.17,492.97 L602.43,493.2 L599.03,493.88 C599.03,493.88 605.65,493.99 614.65,494.11 L614.27,494.33 L625.56,494.23 C642.08,494.38 660.64,494.43 663.08,493.88 C666.9,493.03 686.75,493.63 692.6,493.88 L694.23,493.88 C694.23,493.88 716.04,489.53 707.04,467.4 C700.12,450.4 678.85,445.46 669.41,444.1 C672.07,443.57 674.36,443.16 675.88,442.92 C682.47,441.92 695.27,435.92 696.31,433.87 C697.35,431.82 708.08,425.87 710.85,422.48 C713.62,419.09 721.53,395.06 714.96,377.29 Z M534.31,427.02 L533.24,427.37 L532.52,427.61 L531.14,428.97 C530.04,428.23 528.86,427.45 527.63,426.65 C529.8,426.78 532.03,426.91 534.31,427.02 Z" id="Shape" fill="url(#linearGradient-1)" fill-rule="nonzero"></path>
            <path d="M598.07,321.58 C598.07,321.58 613.37,361.58 622.07,357.58 C630.77,353.58 628.41,336.58 630.07,331.92 C631.73,327.26 633.57,291.92 633.57,291.92 C633.57,291.92 634.41,266.92 636.07,261.86 C637.61,257.21 638.86,233.76 639.07,230.07 C639.07,229.75 639.07,229.58 639.07,229.58 L637.42,200.58 L628.08,198.25 L606.42,206.25 L603.42,223.38 L602.25,230.07 L601.75,232.92 L598.07,321.58 Z" id="Path" fill="#FFB48F"></path>
            <path d="M603.11,314.88 C603.11,314.88 617.71,326.83 622.11,327.88 C626.51,328.93 629.21,338.25 629.21,338.25" id="Path" fill="#000000" opacity="0.1"></path>
            <path d="M478.42,323.33 C478.42,323.33 463.12,363.33 454.42,359.33 C445.72,355.33 448.08,338.33 446.42,333.67 C444.76,329.01 442.92,293.67 442.92,293.67 C442.92,293.67 442.08,268.67 440.42,263.61 C438.88,258.96 437.63,235.51 437.42,231.82 C437.42,231.5 437.42,231.33 437.42,231.33 L439.08,202.33 L448.42,200 L470.08,208 L473.08,225.13 L474.25,231.82 L474.75,234.67 L478.42,323.33 Z" id="Path" fill="#FFB48F"></path>
            <rect id="Rectangle" fill="#3E373A" x="543.9" y="109.27" width="34.15" height="53.23"></rect>
            <rect id="Rectangle" fill="#000000" opacity="0.1" x="543.9" y="109.27" width="34.15" height="53.23"></rect>
            <path d="M472.42,363.17 C472.42,363.17 460.75,376 465.08,378.33 C469.41,380.66 497.42,424.33 497.42,424.33 C497.42,424.33 589.42,435.66 606.77,418.66 C624.12,401.66 623.77,371.29 623.77,371.29 C623.77,371.29 609.83,374.29 608.31,372.66 C606.79,371.03 598.44,363.17 598.44,363.17 C598.44,363.17 480.42,356.01 472.42,363.17 Z" id="Path" fill="#4B4B5B"></path>
            <path d="M472.42,363.17 C472.42,363.17 460.75,376 465.08,378.33 C469.41,380.66 497.42,424.33 497.42,424.33 C497.42,424.33 589.42,435.66 606.77,418.66 C624.12,401.66 623.77,371.29 623.77,371.29 C623.77,371.29 609.83,374.29 608.31,372.66 C606.79,371.03 598.44,363.17 598.44,363.17 C598.44,363.17 480.42,356.01 472.42,363.17 Z" id="Path" fill="#000000" opacity="0.02"></path>
            <path d="M638.04,201 L608.04,225 L598.97,225.66 L595.64,225.9 L539.71,230 L481.71,225.76 L473.08,225.13 L462.08,224.33 L439.08,202.33 C439.08,202.33 455.36,184.89 469.62,173.12 C475.24,168.47 480.55,164.71 484.42,163.23 L485.08,163 C487.514179,162.050728 489.687416,160.535633 491.42,158.58 C502.68,146.97 513.09,118.32 513.09,118.32 C513.09,118.32 562.76,92.66 556.76,126.32 C550.76,159.98 579.09,151.66 579.09,151.66 L588.43,155.92 L592.12,157.61 L601.53,161.92 L622.76,171.66 C639.42,179.33 638.04,201 638.04,201 Z" id="Path" fill="#FFB48F"></path>
            <circle id="Oval" fill="#000000" opacity="0.1" cx="537.38" cy="101.06" r="44.67"></circle>
            <path d="M638.11,232.82 L437.42,232.82 C437.42,232.5 437.42,232.33 437.42,232.33 L439.08,203.33 C439.08,203.33 455.36,185.89 469.62,174.12 L595.62,169.12 L601.48,162.94 L622.71,172.68 C639.38,180.34 638.04,202.01 638.04,202.01 C638.04,202.01 640.32,227.12 638.11,232.82 Z" id="Path" fill="#000000" opacity="0.1"></path>
            <path d="M638.11,231.82 L437.42,231.82 C437.42,231.5 437.42,231.33 437.42,231.33 L439.08,202.33 C439.08,202.33 455.36,184.89 469.62,173.12 L595.62,168.12 L601.48,161.94 L622.71,171.68 C639.38,179.34 638.04,201.01 638.04,201.01 C638.04,201.01 640.32,226.12 638.11,231.82 Z" id="Path" fill="#F5E6CC"></path>
            <path d="M505.21,150.5 C505.21,150.5 536.87,190.84 579.04,149.67 C621.21,108.5 583.71,241.5 583.71,241.5 L492.71,252.3 L505.21,150.5 Z" id="Path" fill="#000000" opacity="0.1"></path>
            <path d="M505.21,152.5 C505.21,152.5 536.87,192.84 579.04,151.67 C621.21,110.5 583.71,243.5 583.71,243.5 L492.71,254.3 L505.21,152.5 Z" id="Path" fill="#F5E6CC"></path>
            <path d="M592.07,159.58 L595.42,210.67 L599.01,227.67 L601.75,240.67 C601.75,240.67 608.75,340.67 606.75,345.67 C604.75,350.67 607.75,354.67 608.17,357.33 C608.59,359.99 607.75,366.67 608.08,369.67 C608.41,372.67 608.08,374 600.42,372.93 C592.76,371.86 582.08,370 582.08,370 C582.08,370 555.08,372 545.75,368.67 C536.42,365.34 518.75,365.33 518.75,365.33 C518.75,365.33 492.08,366 483.42,365 C474.76,364 470.08,375.67 464.42,372.33 C458.76,368.99 471.08,336.67 475.08,327.33 C479.08,317.99 469.75,294.33 469.75,294.33 L481.75,227.76 L484.42,212.67 L484.42,165.23 L485.08,165 C487.514179,164.050728 489.687416,162.535633 491.42,160.58 L494.42,208.32 L588.42,211.66 L588.42,157.93" id="Path" fill="#000000" opacity="0.1"></path>
            <path d="M592.07,157.58 L595.42,208.67 L599.01,225.67 L601.75,238.67 C601.75,238.67 608.75,338.67 606.75,343.67 C604.75,348.67 607.75,352.67 608.17,355.33 C608.59,357.99 607.75,364.67 608.08,367.67 C608.41,370.67 608.08,372 600.42,370.93 C592.76,369.86 582.08,368 582.08,368 C582.08,368 555.08,370 545.75,366.67 C536.42,363.34 518.75,363.33 518.75,363.33 C518.75,363.33 492.08,364 483.42,363 C474.76,362 470.08,373.67 464.42,370.33 C458.76,366.99 471.08,334.67 475.08,325.33 C479.08,315.99 469.75,292.33 469.75,292.33 L481.75,225.76 L484.42,210.67 L484.42,163.23 L485.08,163 C487.514179,162.050728 489.687416,160.535633 491.42,158.58 L494.42,206.32 L588.42,209.66 L588.42,155.93" id="Path" fill="#F5E6CC"></path>
            <path d="M602.88,50.96 C602.31,48.87 601.52,46.7 599.88,45.3 C598.313961,44.1755063 596.505156,43.4355409 594.6,43.14 C590.038782,41.9405973 585.401476,41.0518918 580.72,40.48 C580.051228,38.2595076 579.038974,36.1573937 577.72,34.25 C567.92,20.41 553.42,7.36 536.36,4.41 C527.43,2.86 517.08,4.25 511.36,11.29 C508.22,15.16 506.87,20.29 503.7,24.09 C497.59,31.47 486.56,32.38 478.86,38.09 C474.75,41.09 471.77,45.44 468.86,49.66 C465.71,54.23 462.47,58.99 461.47,64.45 C459.47,75.36 466.68,85.76 468.01,96.77 C471.01,121.4 444.61,143.25 449.6,167.55 C452.51,181.72 465.6,191.7 479.14,196.76 C483.91,198.55 489.36,200.33 491.59,204.91 C492.59,206.91 492.76,209.22 493.7,211.24 C496.86,217.98 507.25,218.24 512.83,213.33 C518.41,208.42 520.17,200.48 520.83,193.07 C523.51,160.71 510.55,128.74 512.06,96.3 C512.51,86.49 515.27,75.36 524.06,70.92 C535.89,64.92 550.12,74.92 563.14,73.01 C569.301233,88.0013811 570.609195,104.54675 566.88,120.32 C564.81,128.95 561.23,137.32 560.97,146.22 C560.58,159.77 567.89,172.15 574.21,184.13 C575.566098,186.370237 576.472975,188.853111 576.88,191.44 C576.97948,194.06471 576.490897,196.678458 575.45,199.09 C571.88,208.7 565.72,217.62 565.02,227.85 C564.814872,229.044175 565.083968,230.271255 565.77,231.27 C566.474563,231.936574 567.383787,232.345373 568.35,232.43 C579.15,234.28 588.49,224.71 593.76,215.1 C599.635611,204.485839 603.059405,192.69049 603.78,180.58 C604.87,160.22 597.57,140.19 598.02,119.81 C598.54,96.64 609.01,73.31 602.88,50.96 Z" id="Path" fill="#000000" opacity="0.1"></path>
            <path d="M603.88,49.96 C603.31,47.87 602.52,45.7 600.88,44.3 C599.313961,43.1755063 597.505156,42.4355409 595.6,42.14 C591.038782,40.9405973 586.401476,40.0518918 581.72,39.48 C581.051228,37.2595076 580.038974,35.1573937 578.72,33.25 C568.92,19.41 554.42,6.36 537.36,3.41 C528.43,1.86 518.08,3.25 512.36,10.29 C509.22,14.16 507.87,19.29 504.7,23.09 C498.59,30.47 487.56,31.38 479.86,37.09 C475.75,40.09 472.77,44.44 469.86,48.66 C466.71,53.23 463.47,57.99 462.47,63.45 C460.47,74.36 467.68,84.76 469.01,95.77 C472.01,120.4 445.61,142.25 450.6,166.55 C453.51,180.72 466.6,190.7 480.14,195.76 C484.91,197.55 490.36,199.33 492.59,203.91 C493.59,205.91 493.76,208.22 494.7,210.24 C497.86,216.98 508.25,217.24 513.83,212.33 C519.41,207.42 521.17,199.48 521.83,192.07 C524.51,159.71 511.55,127.74 513.06,95.3 C513.51,85.49 516.27,74.36 525.06,69.92 C536.89,63.92 551.12,73.92 564.14,72.01 C570.301233,87.0013811 571.609195,103.54675 567.88,119.32 C565.81,127.95 562.23,136.32 561.97,145.22 C561.58,158.77 568.89,171.15 575.21,183.13 C576.566098,185.370237 577.472975,187.853111 577.88,190.44 C577.97948,193.06471 577.490897,195.678458 576.45,198.09 C572.88,207.7 566.72,216.62 566.02,226.85 C565.814872,228.044175 566.083968,229.271255 566.77,230.27 C567.474563,230.936574 568.383787,231.345373 569.35,231.43 C580.15,233.28 589.49,223.71 594.76,214.1 C600.635611,203.485839 604.059405,191.69049 604.78,179.58 C605.87,159.22 598.57,139.19 599.02,118.81 C599.54,95.64 610.01,72.31 603.88,49.96 Z" id="Path" fill="#3E373A"></path>
            <polygon id="Path" fill="#C3C7D9" points="581.79 492.73 621.46 494 615.77 464.58 585.38 467.47"></polygon>
            <path d="M704.71,423 C702.04,426.33 691.71,432.33 690.71,434.33 C689.71,436.33 677.38,442.33 671.04,443.33 C664.7,444.33 644.71,448.67 641.04,451 C638.41,452.68 617.3,458 603.43,460.95 C599.673194,461.838785 595.870942,462.523123 592.04,463 C586.04,463.33 520.38,441 520.38,441 L533.04,428 L533.74,427.76 C537.32,426.55 553.86,420.96 563.04,418.3 C573.38,415.3 585.38,402.97 585.38,402.97 C585.38,402.97 603.04,396.97 605.38,396.3 C607.72,395.63 599.38,372.97 599.38,372.97 C599.38,372.97 637.71,367.65 652.71,363.14 C667.71,358.63 702.38,360.3 708.71,377.97 C715.04,395.64 707.42,419.67 704.71,423 Z" id="Path" fill="#4B4B5B"></path>
            <path d="M530.04,479.33 C530.04,479.33 522.38,487.33 514.71,486.67 C507.04,486.01 480.22,488.67 480.22,488.67 C475.359661,490.608719 470.808347,493.246528 466.71,496.5 C460.44,501.44 457.11,497.5 456.49,496.66 L456.38,496.5 C453.04,507.01 445.38,499 445.38,499 C445.38,499 448.71,467 447.69,463 C446.67,459 454.28,452.13 454.28,452.13 L463.28,449.84 L486.08,444 L518.75,455.33 L530.04,479.33 Z" id="Path" fill="#BE6F72"></path>
            <path d="M463.24,449.84 L456.49,496.66 L456.38,496.5 C453.04,507.01 445.38,499 445.38,499 C445.38,499 448.71,467 447.69,463 C446.67,459 454.28,452.13 454.28,452.13 L463.24,449.84 Z" id="Path" fill="#000000" opacity="0.1"></path>
            <path d="M510.42,316.66 C510.42,316.66 528.08,322.66 543.42,316.66" id="Path" fill="#000000" opacity="0.1"></path>
            <path d="M570.71,328 C570.71,328 578.04,331.66 583.71,328" id="Path" fill="#000000" opacity="0.1"></path>
            <path d="M570.71,336.68 C570.71,336.68 583.04,338.33 585.38,335" id="Path" fill="#000000" opacity="0.1"></path>
            <path d="M566.71,355.33 C566.71,355.33 589.87,352.33 595.62,348.33" id="Path" fill="#000000" opacity="0.1"></path>
            <path d="M496.04,348.33 C496.04,348.33 509.04,355.66 518.71,355.33" id="Path" fill="#000000" opacity="0.1"></path>
            <path d="M603.42,460.95 C599.663194,461.838785 595.860942,462.523123 592.03,463 C586.03,463.33 520.37,441 520.37,441 L533.03,428 L533.73,427.76 C535.73,429.17 537.37,430.38 538.54,431.3 C544.05,435.64 549.37,429.97 551.37,429.97 C553.37,429.97 570.7,444.3 570.7,444.3 C570.7,444.3 586.7,447.97 589.37,451.3 C592.04,454.63 601.37,453.97 603.03,456.3 C603.53,457.02 603.59,458.79 603.42,460.95 Z" id="Path" fill="#000000" opacity="0.1"></path>
            <path d="M480.22,374.33 C480.22,374.33 464.04,375.26 454.71,371.33 C445.38,367.4 414.38,358.33 405.38,364.7 C396.38,371.07 374.71,376.7 384.71,402.04 C394.71,427.38 399.38,428.04 399.38,428.04 C402.474042,430.360284 405.175139,433.162673 407.38,436.34 C410.38,441.01 438.38,451.67 445.38,451.67 C452.38,451.67 464.71,451.67 482.04,463.67 C499.37,475.67 515.04,477.01 515.04,477.01 C515.04,477.01 537.04,486.01 543.89,488.01 C550.74,490.01 582.04,498.67 589.38,496.01 C596.72,493.35 601.38,476.67 601.38,476.67 C601.38,476.67 604.71,461.67 603.04,459.34 C601.37,457.01 592.04,457.67 589.38,454.34 C586.72,451.01 570.71,447.34 570.71,447.34 C570.71,447.34 553.42,433 551.42,433 C549.42,433 544.1,438.66 538.59,434.33 C527.614086,426.200425 516.08257,418.849125 504.08,412.33 C491.42,405.66 480.22,374.33 480.22,374.33 Z" id="Path" fill="#4B4B5B"></path>
            <path d="M447.69,384 C453.529677,382.806961 459.591532,384.408415 464.08,388.33 C472.08,395 499,408.39 499,408.39" id="Path" fill="#000000" opacity="0.1"></path>
            <path d="M647.71,383.58 C647.71,383.58 612.04,388.98 605.38,396.31" id="Path" fill="#000000" opacity="0.1"></path>
            <path d="M688.71,494 L687.14,494 C681.5,493.8 662.39,493.2 658.71,494 C654.38,495 597.04,494 597.04,494 L608.25,491.67 C608.25,491.67 604.09,477.09 606.73,475.88 C606.73,475.88 591.73,466 603.04,459.33 C614.35,452.66 626.54,455.47 626.54,455.47 L654.93,445.85 L660.38,444 C660.38,444 692.38,445.67 701.04,467.67 C709.7,489.67 688.71,494 688.71,494 Z" id="Path" fill="#BE6F72"></path>
            <path d="M688.71,494 L687.14,494 C696.45,486.32 717.51,462.94 654.93,445.9 L660.38,444.05 C660.38,444.05 692.38,445.72 701.04,467.72 C709.7,489.72 688.71,494 688.71,494 Z" id="Path" fill="#000000" opacity="0.1"></path>
            <circle id="Oval" fill="#4B4B5B" cx="629.88" cy="466.33" r="1.75"></circle>
            <circle id="Oval" fill="#4B4B5B" cx="619.71" cy="469.22" r="1.75"></circle>
            <g id="Group" opacity="0.1" transform="translate(450.000000, 62.000000)" fill="#000000">
                <path d="M120.16,37.41 C120.547826,26.4108157 118.591182,15.4549743 114.42,5.27 C101.42,7.21 87.18,-2.82 75.34,3.18 C66.58,7.62 63.83,18.75 63.34,28.56 C63.22,31.15 63.2,33.74 63.25,36.33 C63.25,35.41 63.25,34.48 63.34,33.56 C63.8,23.75 66.55,12.62 75.34,8.18 C87.18,2.18 101.4,12.18 114.42,10.27 C117.952545,18.8970483 119.897119,28.091431 120.16,37.41 Z" id="Path"></path>
                <path d="M19.42,35.58 C19.5912753,33.4010128 19.5477322,31.2104596 19.29,29.04 C18.23,20.24 13.42,11.83 12.55,3.25 C11.43,13.6 18.02,23.54 19.29,34.04 C19.42,34.58 19.42,35.06 19.42,35.58 Z" id="Path"></path>
                <path d="M72.11,125.32 C71.49,132.74 69.74,140.67 64.11,145.59 C58.48,150.51 48.11,150.24 44.98,143.5 C43.98,141.5 43.83,139.17 42.86,137.17 C40.64,132.59 35.18,130.81 30.41,129.02 C16.86,123.95 3.79,114.02 0.88,99.81 C0.620042867,98.5226836 0.443012013,97.2200038 0.35,95.91 C0.10407828,98.8867934 0.282529732,101.883431 0.88,104.81 C3.79,118.98 16.88,128.95 30.41,134.02 C35.18,135.81 40.64,137.59 42.86,142.17 C43.86,144.17 44.03,146.48 44.98,148.5 C48.13,155.24 58.52,155.5 64.11,150.59 C69.7,145.68 71.44,137.74 72.11,130.32 C72.414459,126.414565 72.5179289,122.49606 72.42,118.58 C72.42,120.85 72.29,123.09 72.11,125.32 Z" id="Path"></path>
                <path d="M149.35,52.07 C149.35,53.52 149.35,54.96 149.35,56.4 C149.91,37.8 156.73,19.1 156.06,0.89 C155.54,17.73 149.73,34.95 149.35,52.07 Z" id="Path"></path>
                <path d="M127.89,127.31 C128.135971,126.12346 128.213399,124.908162 128.12,123.7 C127.717234,121.112011 126.810063,118.628333 125.45,116.39 C119.67,105.39 113.08,94.13 112.3,81.92 C112.3,82.44 112.23,82.92 112.22,83.48 C111.82,97.02 119.13,109.41 125.45,121.39 C126.524104,123.245491 127.344739,125.23654 127.89,127.31 Z" id="Path"></path>
                <path d="M155.1,112.84 C154.353488,124.955214 150.905957,136.74994 145.01,147.36 C139.73,156.97 130.4,166.54 119.59,164.69 C118.621503,164.606534 117.710887,164.19358 117.01,163.52 C116.806901,163.290967 116.647592,163.026582 116.54,162.74 C116.42,163.52 116.32,164.31 116.26,165.11 C116.05324,166.301036 116.322579,167.525631 117.01,168.52 C117.710887,169.19358 118.621503,169.606534 119.59,169.69 C130.4,171.54 139.73,161.97 145.01,152.36 C150.905957,141.74994 154.353488,129.955214 155.1,117.84 C155.22,115.5 155.23,113.17 155.16,110.84 C155.14,111.51 155.14,112.17 155.1,112.84 Z" id="Path"></path>
            </g>
            <path d="M606.73,475.88 C606.73,475.88 632.04,486.5 648.73,463" id="Path" stroke="#000000" opacity="0.1"></path>
            <path d="M611.71,494.44 C611.71,494.44 632.38,481 658.71,494" id="Path" stroke="#000000" opacity="0.1"></path>
            <path d="M473.35,491.39 C473.35,491.39 482.03,471.81 505.21,486.74" id="Path" stroke="#000000" opacity="0.1"></path>
            <path d="M445.21,201.83 L462.91,185.83 C462.91,185.83 531.54,181.33 534.38,204.66 C534.38,204.66 558.71,177 609.88,183.16 L631.53,200.4 L571.69,226.66 L513.54,246.83 L470.71,227.66 L445.21,201.83 Z" id="Path" fill="#000000" opacity="0.1"></path>
            <path d="M445.21,202.83 L462.91,186.83 C462.91,186.83 531.54,182.33 534.38,205.66 C534.38,205.66 558.71,178 609.88,184.16 L631.53,201.4 L571.69,227.66 L513.54,247.83 L470.71,228.66 L445.21,202.83 Z" id="Path" fill="#D5D6DB"></path>
            <polygon id="Path" fill="#000000" opacity="0.1" points="437.38 204.83 445.21 298.5 528.21 302.67 524.61 209.4 524.54 207.83"></polygon>
            <polygon id="Path" fill="#FF6347" points="437.38 202.83 445.21 296.5 528.21 300.67 524.61 207.4 524.54 205.83"></polygon>
            <polygon id="Path" fill="#000000" opacity="0.1" points="635.33 202.83 549.71 215.67 549.71 309.76 633.38 297.67"></polygon>
            <polygon id="Path" fill="#FF6347" points="635.33 200.83 549.71 213.67 549.71 307.76 633.38 295.67"></polygon>
            <polygon id="Path" fill="#FFFFFF" opacity="0.3" points="615.14 223.79 568.89 228.93 569.9 244.69 615.11 239.75"></polygon>
            <path d="M449.71,346.66 L454.42,359.33 C454.42,359.33 461.42,365.33 469.08,362.33 C476.74,359.33 483.42,357.84 486.75,354.92 C490.08,352 494.75,337.33 494.75,337.33 C494.75,337.33 499.42,321.33 504.08,317.33 C508.74,313.33 521.08,258.22 504.08,263.61 C487.08,269 474.08,319 474.08,319 C474.08,319 471.08,322.66 466.75,323 C462.42,323.34 453.75,322.33 452.08,326 C450.41,329.67 444.71,339.33 449.71,346.66 Z" id="Path" fill="#FFB48F"></path>
            <path d="M549.71,215.66 C540.820996,217.66304 531.508433,215.34139 524.6,209.4 L528.21,302.66 C528.21,302.66 536.71,311.86 549.71,309.76 L549.71,215.66 Z" id="Path" fill="#000000" opacity="0.1"></path>
            <path d="M549.71,213.66 C540.820996,215.66304 531.508433,213.34139 524.6,207.4 L528.21,300.66 C528.21,300.66 536.71,309.86 549.71,307.76 L549.71,213.66 Z" id="Path" fill="#FF6347"></path>
            <path d="M549.71,213.66 C540.820996,215.66304 531.508433,213.34139 524.6,207.4 L528.21,300.66 C528.21,300.66 536.71,309.86 549.71,307.76 L549.71,213.66 Z" id="Path" fill="#000000" opacity="0.1"></path>
            <path d="M551.71,203.15 C551.71,203.15 586.54,192.5 595.62,194" id="Path" fill="#000000" opacity="0.1"></path>
            <path d="M512.75,198.5 C512.75,198.5 478.99,190.5 473.35,192.77" id="Path" fill="#000000" opacity="0.1"></path>
            <path d="M573.67,204.48 C573.67,204.48 596.96,195.94 605.38,200" id="Path" fill="#000000" opacity="0.1"></path>
            <path d="M561.94,418.71 C565.549017,415.999588 569.390646,413.613629 573.42,411.58 C579.42,408.69 590.42,401.19 590.42,401.19" id="Path" fill="#000000" opacity="0.1"></path>
            <path d="M473.35,316.66 C473.35,316.66 458.74,328.61 454.35,329.66 C449.96,330.71 447.25,340.03 447.25,340.03" id="Path" fill="#000000" opacity="0.1"></path>
            <path d="M626.74,344.88 L622.08,357.58 C622.08,357.58 615.08,363.58 607.41,360.58 C599.74,357.58 593.08,356.09 589.74,353.17 C586.4,350.25 581.74,335.58 581.74,335.58 C581.74,335.58 577.08,319.58 572.41,315.58 C567.74,311.58 555.41,256.47 572.41,261.86 C589.41,267.25 602.41,317.25 602.41,317.25 C602.41,317.25 605.41,320.91 609.74,321.25 C614.07,321.59 622.74,320.58 624.41,324.25 C626.08,327.92 631.74,337.58 626.74,344.88 Z" id="Path" fill="#FFB48F"></path>
            <path d="M618.57,321.52 C618.57,321.52 628.12,327.66 628.08,335" id="Path" fill="#000000" opacity="0.1"></path>
            <circle id="Oval" fill="#FFB48F" cx="537.54" cy="98.87" r="44.67"></circle>
            <path d="M509.49,86.88 C514.91,86.03 519.66,82.88 524.84,81.07 C536.43,77 549.25,79.79 560.98,83.46 C565.48,84.87 570.05,86.46 574.77,86.46 C579.49,86.46 584.5,84.53 586.91,80.46 C589.13,76.72 588.7,71.86 586.83,67.93 C584.96,64 581.83,60.84 578.67,57.86 C568.27,48.04 555.37,38.86 541.1,39.86 C535.36,40.27 529.87,42.32 524.59,44.59 C517.941638,47.4549994 511.470139,50.7141236 505.21,54.35 C500.4,57.14 491.49,60.87 488.72,65.97 C482.42,77.46 499.69,88.42 509.49,86.88 Z" id="Path" fill="#3E373A"></path>
            <path d="M586.91,76.26 C584.5,80.33 579.49,82.26 574.77,82.26 C570.05,82.26 565.48,80.73 560.97,79.32 C549.24,75.65 536.43,72.85 524.83,76.93 C519.66,78.74 514.9,81.93 509.48,82.73 C501.58,83.97 488.86,77.09 487.48,68.34 C485.93,78.45 500.68,87.11 509.48,85.73 C514.9,84.88 519.66,81.73 524.83,79.93 C536.43,75.85 549.24,78.65 560.97,82.32 C565.48,83.73 570.04,85.32 574.77,85.26 C579.5,85.2 584.5,83.34 586.91,79.26 C588.159225,77.0404276 588.650729,74.474078 588.31,71.95 C588.153987,73.4696346 587.676778,74.9387579 586.91,76.26 Z" id="Path" fill="#000000" opacity="0.1"></path>
            <path d="M949.42,618.21 C949.42,618.21 955.35,625.96 946.68,637.67 C938.01,649.38 930.87,659.26 933.75,666.56 C933.75,666.56 946.83,644.82 957.47,644.51 C968.11,644.2 961.11,631.28 949.42,618.21 Z" id="Path" fill="#009688"></path>
            <path d="M949.42,618.21 C949.936397,618.958598 950.343803,619.776776 950.63,620.64 C961.01,632.84 966.55,644.23 956.56,644.51 C947.26,644.78 936.11,661.41 933.44,665.6 C933.525405,665.938629 933.628886,666.272441 933.75,666.6 C933.75,666.6 946.83,644.86 957.47,644.55 C968.11,644.24 961.11,631.28 949.42,618.21 Z" id="Path" fill="#000000" opacity="0.1"></path>
            <path d="M960.42,628.09 C960.42,630.82 960.11,633.03 959.74,633.03 C959.37,633.03 959.05,630.82 959.05,628.09 C959.05,625.36 959.43,626.65 959.81,626.65 C960.19,626.65 960.42,625.36 960.42,628.09 Z" id="Path" fill="#FFD037"></path>
            <path d="M964.21,631.35 C961.82,632.65 959.73,633.44 959.55,633.11 C959.37,632.78 961.16,631.45 963.55,630.11 C965.94,628.77 965,629.75 965.18,630.11 C965.36,630.47 966.61,630.04 964.21,631.35 Z" id="Path" fill="#FFD037"></path>
            <path d="M918.08,618.21 C918.08,618.21 912.15,625.96 920.82,637.67 C929.49,649.38 936.63,659.26 933.74,666.56 C933.74,666.56 920.67,644.82 910.02,644.51 C899.37,644.2 906.42,631.28 918.08,618.21 Z" id="Path" fill="#009688"></path>
            <path d="M918.08,618.21 C917.563603,618.958598 917.156197,619.776776 916.87,620.64 C906.49,632.84 900.95,644.23 910.94,644.51 C920.23,644.78 931.39,661.41 934.06,665.6 C933.976151,665.940209 933.869237,666.274315 933.74,666.6 C933.74,666.6 920.67,644.86 910.02,644.55 C899.37,644.24 906.42,631.28 918.08,618.21 Z" id="Path" fill="#000000" opacity="0.1"></path>
            <path d="M907.06,628.09 C907.06,630.82 907.36,633.03 907.74,633.03 C908.12,633.03 908.43,630.82 908.43,628.09 C908.43,625.36 908.04,626.65 907.67,626.65 C907.3,626.65 907.06,625.36 907.06,628.09 Z" id="Path" fill="#FFD037"></path>
            <path d="M903.28,631.35 C905.67,632.65 907.76,633.44 907.94,633.11 C908.12,632.78 906.33,631.45 903.94,630.11 C901.55,628.77 902.49,629.75 902.31,630.11 C902.13,630.47 900.88,630.04 903.28,631.35 Z" id="Path" fill="#FFD037"></path>
            <ellipse id="Oval" fill="#540CFA" opacity="0.1" cx="933.75" cy="716.37" rx="62" ry="9.51"></ellipse>
            <path d="M965.66,656.11 L965.36,658.53 L964.94,661.95 L964.77,663.38 L964.35,666.8 L964.17,668.23 L963.76,671.64 L959.01,710.54 C958.59,714.01 952.92,716.72 946.07,716.72 L921.42,716.72 C914.57,716.72 908.91,714.01 908.48,710.54 L903.73,671.64 L903.31,668.23 L903.14,666.8 L902.72,663.38 L902.54,661.95 L902.13,658.53 L901.83,656.11 C901.6,654.11 904.66,652.49 908.54,652.49 L958.96,652.49 C962.83,652.49 965.9,654.14 965.66,656.11 Z" id="Path" fill="#65617D"></path>
            <polygon id="Path" fill="#9D9CB5" points="965.36 658.53 964.95 661.95 902.55 661.95 902.13 658.53"></polygon>
            <polygon id="Path" fill="#9D9CB5" points="964.77 663.38 964.36 666.8 903.14 666.8 902.72 663.38"></polygon>
            <polygon id="Path" fill="#9D9CB5" points="964.18 668.23 963.76 671.65 903.73 671.65 903.32 668.23"></polygon>
        </g>
    </g>
</svg>